# xmcd
#
# Track frame offsets:
#	150
#	10950
#	21660
#	30465
#	40365
#	49860
#	59888
#	68596
#	84114
#	94472
#	104350
#	115750
#
# Disc length: 1679 seconds
#
# Revision: 1
# Processed by: cddbd v1.5.2PL0 Copyright (c) Steve Scherf et al.
# Submitted via: audiograbber 1.83.01
#
DISCID=a0068d0c
DTITLE=Merle Travis and Joe Maphis - Country Music's Two Guitar Greats
DYEAR=1964
DGENRE=Instrumental
TTITLE0=Corrine Corrina
TTITLE1=Big Midnight Special
TTITLE2=Bayou Baby
TTITLE3=Don't Let Your Deal Go Down
TTITLE4=Guitar Rag
TTITLE5=Blast Off
TTITLE6=When It's Time For The Whippoorwill To Sing
TTITLE7=West Coast Blues
TTITLE8=Mainstreet Breakdown
TTITLE9=Picture On The Wall
TTITLE10=Kentucky Waltz
TTITLE11=Gonna Lay Down My Old Guitar
EXTD=
EXTT0=
EXTT1=
EXTT2=
EXTT3=
EXTT4=
EXTT5=
EXTT6=
EXTT7=
EXTT8=
EXTT9=
EXTT10=
EXTT11=
PLAYORDER=
